# xmcd CD database file
#
# Track frame offsets:
#	150
#	21547
#	44802
#	65797
#	100077
#	126620
#	145735
#	162192
#	178695
#
# Disc length: 2691 seconds
#
# Revision: 0
# Processed by: cddbd v1.4PL0 Copyright (c) Steve Scherf et al.
# Submitted via: CDex 1.51
#
DISCID=8b0a8109
DTITLE=Doug Carn - Adam's Apple
DYEAR=1991
DGENRE=Jazz
TTITLE0=Chant
TTITLE1=Higher Ground
TTITLE2=Sweet Seasons
TTITLE3=Sanctuary
TTITLE4=Might Mighty
TTITLE5=The Messenger
TTITLE6=Adam's Apple
TTITLE7=To A Wild Rose
TTITLE8=Western Sunrise
EXTD=YEAR: 1991
EXTT0=
EXTT1=
EXTT2=
EXTT3=
EXTT4=
EXTT5=
EXTT6=
EXTT7=
EXTT8=
PLAYORDER=
